<svg width="170" height="45" viewBox="0 0 170 45" fill="none" xmlns="http://www.w3.org/2000/svg">
<path d="M13.5 10.8C15.756 10.8 17.688 11.364 19.296 12.492C20.928 13.596 22.164 15.108 23.004 17.028C23.868 18.924 24.3 21.048 24.3 23.4C24.3 25.752 23.868 27.888 23.004 29.808C22.164 31.704 20.928 33.216 19.296 34.344C17.688 35.448 15.756 36 13.5 36H4.896C4.272 36 3.744 35.796 3.312 35.388C2.904 34.956 2.7 34.428 2.7 33.804V12.996C2.7 12.372 2.904 11.856 3.312 11.448C3.744 11.016 4.272 10.8 4.896 10.8H13.5ZM13.14 31.86C15.3 31.86 16.92 31.068 18 29.484C19.08 27.876 19.62 25.848 19.62 23.4C19.62 20.952 19.068 18.936 17.964 17.352C16.884 15.744 15.276 14.94 13.14 14.94H7.2V31.86H13.14ZM47.0104 22.392C47.6344 22.392 48.1504 22.608 48.5584 23.04C48.9664 23.448 49.1704 23.964 49.1704 24.588V32.22C49.1704 33.06 48.7984 33.708 48.0544 34.164C45.7024 35.628 43.1224 36.36 40.3144 36.36C37.9384 36.36 35.7424 35.784 33.7264 34.632C31.7104 33.456 30.1144 31.884 28.9384 29.916C27.7624 27.924 27.1744 25.752 27.1744 23.4C27.1744 21.048 27.7624 18.888 28.9384 16.92C30.1144 14.928 31.7104 13.356 33.7264 12.204C35.7424 11.028 37.9384 10.44 40.3144 10.44C42.6904 10.44 44.7544 10.92 46.5064 11.88C46.8664 12.072 47.1304 12.324 47.2984 12.636C47.4904 12.948 47.5864 13.284 47.5864 13.644C47.5864 14.244 47.3824 14.772 46.9744 15.228C46.5904 15.66 46.1104 15.876 45.5344 15.876C45.1744 15.876 44.7784 15.78 44.3464 15.588C43.0504 15.036 41.7064 14.76 40.3144 14.76C38.7784 14.76 37.3624 15.156 36.0664 15.948C34.7704 16.716 33.7384 17.76 32.9704 19.08C32.2264 20.4 31.8544 21.84 31.8544 23.4C31.8544 24.96 32.2264 26.4 32.9704 27.72C33.7384 29.04 34.7704 30.096 36.0664 30.888C37.3624 31.656 38.7784 32.04 40.3144 32.04C40.9864 32.04 41.7064 31.98 42.4744 31.86C43.2424 31.74 43.9144 31.584 44.4904 31.392V26.712H41.1064C40.4824 26.712 39.9544 26.508 39.5224 26.1C39.1144 25.692 38.9104 25.176 38.9104 24.552C38.9104 23.928 39.1144 23.412 39.5224 23.004C39.9544 22.596 40.4824 22.392 41.1064 22.392H47.0104ZM67.7568 31.86C68.3808 31.86 68.8968 32.076 69.3048 32.508C69.7368 32.916 69.9528 33.396 69.9528 33.948C69.9528 34.548 69.7368 35.04 69.3048 35.424C68.8968 35.808 68.3808 36 67.7568 36H55.6968C55.0728 36 54.5448 35.796 54.1128 35.388C53.7048 34.956 53.5008 34.428 53.5008 33.804V12.996C53.5008 12.372 53.7048 11.856 54.1128 11.448C54.5448 11.016 55.0728 10.8 55.6968 10.8H67.7568C68.3808 10.8 68.8968 11.004 69.3048 11.412C69.7368 11.796 69.9528 12.3 69.9528 12.924C69.9528 13.524 69.7488 14.016 69.3408 14.4C68.9328 14.76 68.4048 14.94 67.7568 14.94H58.0008V21.06H66.1368C66.7608 21.06 67.2768 21.264 67.6848 21.672C68.1168 22.056 68.3328 22.56 68.3328 23.184C68.3328 23.784 68.1288 24.276 67.7208 24.66C67.3128 25.02 66.7848 25.2 66.1368 25.2H58.0008V31.86H67.7568ZM93.8663 32.472C94.1783 32.664 94.4183 32.916 94.5863 33.228C94.7783 33.54 94.8743 33.864 94.8743 34.2C94.8743 34.632 94.7303 35.028 94.4423 35.388C94.0823 35.82 93.5303 36.036 92.7863 36.036C92.2103 36.036 91.6823 35.904 91.2023 35.64C89.4743 34.656 88.6103 32.652 88.6103 29.628C88.6103 28.764 88.3223 28.08 87.7463 27.576C87.1943 27.072 86.3903 26.82 85.3343 26.82H78.6023V33.804C78.6023 34.452 78.4223 34.98 78.0623 35.388C77.7263 35.796 77.2703 36 76.6943 36C75.9983 36 75.3863 35.796 74.8583 35.388C74.3543 34.956 74.1023 34.428 74.1023 33.804V12.996C74.1023 12.372 74.3063 11.856 74.7143 11.448C75.1463 11.016 75.6743 10.8 76.2983 10.8H86.6663C87.9143 10.8 89.0903 11.136 90.1943 11.808C91.2983 12.48 92.1743 13.404 92.8223 14.58C93.4943 15.756 93.8303 17.076 93.8303 18.54C93.8303 19.74 93.5063 20.916 92.8583 22.068C92.2103 23.196 91.3703 24.096 90.3383 24.768C91.8503 25.824 92.6783 27.24 92.8223 29.016C92.8943 29.4 92.9303 29.772 92.9303 30.132C93.0263 30.876 93.1223 31.416 93.2183 31.752C93.3143 32.064 93.5303 32.304 93.8663 32.472ZM86.4863 23.112C86.9183 23.112 87.3383 22.908 87.7463 22.5C88.1543 22.092 88.4903 21.552 88.7543 20.88C89.0183 20.184 89.1503 19.44 89.1503 18.648C89.1503 17.976 89.0183 17.364 88.7543 16.812C88.4903 16.236 88.1543 15.78 87.7463 15.444C87.3383 15.108 86.9183 14.94 86.4863 14.94H78.6023V23.112H86.4863ZM118.185 12.924C118.185 13.38 118.017 13.836 117.681 14.292L104.001 31.86H115.485C116.133 31.86 116.661 32.052 117.069 32.436C117.477 32.796 117.681 33.288 117.681 33.912C117.681 34.512 117.465 35.016 117.033 35.424C116.625 35.808 116.109 36 115.485 36H99.6812C99.0572 36 98.5172 35.784 98.0612 35.352C97.6052 34.92 97.3772 34.428 97.3772 33.876C97.3772 33.42 97.5452 32.964 97.8812 32.508L111.525 14.94H101.121C100.473 14.94 99.9452 14.748 99.5372 14.364C99.1292 13.98 98.9252 13.476 98.9252 12.852C98.9252 12.252 99.1292 11.76 99.5372 11.376C99.9692 10.992 100.497 10.8 101.121 10.8H115.845C116.421 10.8 116.949 11.004 117.429 11.412C117.933 11.82 118.185 12.324 118.185 12.924ZM123.709 35.964C123.013 35.964 122.473 35.784 122.089 35.424C121.729 35.04 121.549 34.5 121.549 33.804V33.192C121.549 32.496 121.729 31.968 122.089 31.608C122.473 31.224 123.013 31.032 123.709 31.032H124.177C124.873 31.032 125.401 31.224 125.761 31.608C126.145 31.968 126.337 32.496 126.337 33.192V33.804C126.337 34.5 126.145 35.04 125.761 35.424C125.401 35.784 124.873 35.964 124.177 35.964H123.709ZM139.154 16.38C141.194 16.38 142.838 16.704 144.086 17.352C145.334 17.976 145.958 18.816 145.958 19.872C145.958 20.4 145.802 20.868 145.49 21.276C145.178 21.66 144.77 21.852 144.266 21.852C143.882 21.852 143.57 21.804 143.33 21.708C143.09 21.588 142.85 21.444 142.61 21.276C142.394 21.084 142.178 20.928 141.962 20.808C141.722 20.688 141.362 20.58 140.882 20.484C140.426 20.388 140.054 20.34 139.766 20.34C137.966 20.34 136.55 20.904 135.518 22.032C134.51 23.136 134.006 24.588 134.006 26.388C134.006 28.116 134.522 29.556 135.554 30.708C136.586 31.836 137.906 32.4 139.514 32.4C140.69 32.4 141.566 32.256 142.142 31.968C142.286 31.896 142.478 31.776 142.718 31.608C142.982 31.416 143.222 31.272 143.438 31.176C143.654 31.08 143.918 31.032 144.23 31.032C144.83 31.032 145.298 31.224 145.634 31.608C145.994 31.992 146.174 32.484 146.174 33.084C146.174 33.66 145.838 34.2 145.166 34.704C144.494 35.208 143.606 35.616 142.502 35.928C141.398 36.216 140.222 36.36 138.974 36.36C137.126 36.36 135.494 35.928 134.078 35.064C132.686 34.2 131.606 33.012 130.838 31.5C130.07 29.964 129.686 28.26 129.686 26.388C129.686 24.444 130.082 22.716 130.874 21.204C131.69 19.692 132.818 18.516 134.258 17.676C135.698 16.812 137.33 16.38 139.154 16.38ZM167.797 26.388C167.797 28.308 167.365 30.036 166.501 31.572C165.637 33.084 164.449 34.26 162.937 35.1C161.449 35.94 159.805 36.36 158.005 36.36C156.181 36.36 154.525 35.94 153.037 35.1C151.549 34.26 150.373 33.084 149.509 31.572C148.645 30.036 148.213 28.308 148.213 26.388C148.213 24.468 148.645 22.752 149.509 21.24C150.373 19.704 151.549 18.516 153.037 17.676C154.525 16.812 156.181 16.38 158.005 16.38C159.805 16.38 161.449 16.812 162.937 17.676C164.449 18.516 165.637 19.704 166.501 21.24C167.365 22.752 167.797 24.468 167.797 26.388ZM163.477 26.388C163.477 25.212 163.225 24.168 162.721 23.256C162.241 22.32 161.581 21.6 160.741 21.096C159.925 20.592 159.013 20.34 158.005 20.34C156.997 20.34 156.073 20.592 155.233 21.096C154.417 21.6 153.757 22.32 153.253 23.256C152.773 24.168 152.533 25.212 152.533 26.388C152.533 27.564 152.773 28.608 153.253 29.52C153.757 30.432 154.417 31.14 155.233 31.644C156.073 32.148 156.997 32.4 158.005 32.4C159.013 32.4 159.925 32.148 160.741 31.644C161.581 31.14 162.241 30.432 162.721 29.52C163.225 28.608 163.477 27.564 163.477 26.388Z" fill="#3E3D3D"/>
<path fill-rule="evenodd" clip-rule="evenodd" d="M104.465 9L103.131 5.92344C103.081 5.93047 103.028 5.9375 102.975 5.9375C102.437 5.9375 102 5.55957 102 5.09375C102 4.62793 102.439 4.25 102.977 4.25C103.515 4.25 103.952 4.62793 103.952 5.09375C103.952 5.21855 103.918 5.33633 103.863 5.4418L105.331 6.20469C105.642 6.36641 106.048 6.275 106.229 6.00078L107.885 3.49414C107.667 3.33945 107.525 3.10742 107.525 2.84375C107.525 2.37793 107.962 2 108.5 2C109.038 2 109.475 2.37793 109.475 2.84375C109.475 3.10742 109.333 3.33945 109.115 3.49414L110.771 6.00078C110.952 6.275 111.356 6.36641 111.669 6.20469L113.139 5.4418C113.083 5.33457 113.05 5.21855 113.05 5.09375C113.05 4.62793 113.487 4.25 114.025 4.25C114.563 4.25 115 4.62793 115 5.09375C115 5.55957 114.563 5.9375 114.025 5.9375C113.972 5.9375 113.919 5.93047 113.869 5.92344L112.535 9H104.465Z" fill="#3D3D3D"/>
</svg>
